<svg width="121" height="32" viewBox="0 0 121 32" fill="none" xmlns="http://www.w3.org/2000/svg">
<path d="M0.972172 30.8564L6.78017 23.2884H26.9322C28.9122 23.2884 29.7482 22.5844 29.7482 21.2204C29.7482 19.9444 28.9122 19.2404 26.9322 19.2404H9.28817L13.9962 12.9484H27.0642C28.3842 12.9484 29.6162 12.4644 29.6162 10.9684C29.6162 9.51644 28.3402 9.07644 27.0642 9.07644H2.42417L8.27617 1.42044H26.6682C33.7082 1.42044 38.2402 4.14844 38.2402 9.56044C38.2402 13.0364 36.2602 14.9724 34.2362 15.7204C36.7882 16.4684 38.8562 18.7564 38.8562 22.2764C38.8562 27.1604 36.1722 30.8564 26.8882 30.8564H0.972172ZM61.302 0.936445C73.798 0.936445 80.09 5.60045 80.09 16.1164C80.09 26.6324 73.798 31.3404 61.302 31.3404C48.806 31.3404 42.514 26.6324 42.514 16.1164C42.514 5.60045 48.806 0.936445 61.302 0.936445ZM61.302 23.6844C68.518 23.6844 71.114 22.4524 71.114 16.1164C71.114 9.78044 68.518 8.59244 61.302 8.59244C54.086 8.59244 51.49 9.78044 51.49 16.1164C51.49 22.4524 54.086 23.6844 61.302 23.6844ZM82.355 30.8564L88.163 23.2884H108.315C110.295 23.2884 111.131 22.5844 111.131 21.2204C111.131 19.9444 110.295 19.2404 108.315 19.2404H90.671L95.379 12.9484H108.447C109.767 12.9484 110.999 12.4644 110.999 10.9684C110.999 9.51644 109.723 9.07644 108.447 9.07644H83.807L89.659 1.42044H108.051C115.091 1.42044 119.623 4.14844 119.623 9.56044C119.623 13.0364 117.643 14.9724 115.619 15.7204C118.171 16.4684 120.239 18.7564 120.239 22.2764C120.239 27.1604 117.555 30.8564 108.271 30.8564H82.355Z" fill="#008080"/>
</svg>
