<svg width="839" height="67" viewBox="0 0 839 67" fill="none" xmlns="http://www.w3.org/2000/svg">
<path d="M36.2885 48.7678H81.3125L65.6645 65.2798H33.4085C13.3445 65.2798 0.000476837 53.1838 0.000476837 36.9598C0.000476837 15.8398 20.1605 1.05578 44.7365 1.05578H89.7605L74.0165 17.7598H41.7605C29.9525 17.7598 19.9685 25.3438 19.9685 35.5198C19.9685 43.4878 26.5925 48.7678 36.2885 48.7678ZM141.778 -0.00021553C169.522 -0.00021553 183.538 8.54378 183.538 27.1678C183.538 53.5678 166.066 66.3358 130.066 66.3358C102.322 66.3358 88.3062 57.6958 88.3062 39.0718C88.3062 12.6718 105.778 -0.00021553 141.778 -0.00021553ZM132.946 49.6318C158.77 49.6318 163.57 45.5998 163.57 29.1838C163.57 18.8158 156.274 16.7038 138.802 16.7038C112.978 16.7038 108.274 20.6398 108.274 37.1518C108.274 47.5198 115.666 49.6318 132.946 49.6318ZM252.132 66.3358C249.444 66.3358 247.428 65.7598 244.74 62.8798L211.62 27.5518L204.996 65.2798H186.948L196.26 11.9998C197.7 3.45578 203.364 -0.00021553 209.316 -0.00021553C211.716 -0.00021553 214.116 0.575783 216.708 3.45578L249.828 38.7838L256.548 1.05578H274.596L265.092 54.2398C263.556 62.7838 257.892 66.3358 252.132 66.3358ZM293.226 1.05578H366.186L350.25 17.7598H327.402L318.954 65.2798H299.082L307.434 17.7598H277.29L293.226 1.05578ZM442.374 65.2798H367.686L382.662 48.7678H398.694C402.63 48.7678 407.046 48.7678 410.118 48.9598C408.774 46.6558 406.758 42.7198 405.222 39.6478L396.678 22.6558L359.046 65.2798H335.526L386.982 7.19978C390.342 3.45578 394.854 -0.00021553 401.094 -0.00021553C407.046 -0.00021553 410.406 3.16778 412.518 7.19978L442.374 65.2798ZM479.163 48.7678H524.187L508.539 65.2798H476.283C456.219 65.2798 442.875 53.1838 442.875 36.9598C442.875 15.8398 463.035 1.05578 487.611 1.05578H532.635L516.891 17.7598H484.635C472.827 17.7598 462.843 25.3438 462.843 35.5198C462.843 43.4878 469.467 48.7678 479.163 48.7678ZM546.445 1.05578H619.405L603.469 17.7598H580.621L572.173 65.2798H552.301L560.653 17.7598H530.509L546.445 1.05578Z" fill="#0C2B2C"/>
<path d="M745.488 1.05578L739.056 37.2478C735.6 56.6398 720.72 66.3358 693.936 66.3358C666.384 66.3358 654.192 58.6558 654.192 43.2958C654.192 41.3758 654.384 39.3598 654.768 37.2478L661.2 1.05578H681.072L674.544 37.2478C674.352 38.5918 674.256 39.7438 674.256 40.7998C674.256 47.5198 679.248 49.8238 696.816 49.8238C712.176 49.8238 717.456 46.2718 719.088 37.2478L725.52 1.05578H745.488ZM776.816 26.6878H811.76C825.68 26.6878 833.072 31.6798 833.072 41.2798C833.072 55.1998 824.336 65.2798 801.488 65.2798H741.68L757.328 48.7678H806C811.376 48.7678 813.68 47.0398 813.68 43.2958C813.68 40.7038 811.664 39.4558 807.632 39.4558H772.592C758 39.4558 751.472 33.3118 751.472 23.9998C751.472 10.9438 760.4 1.05578 782.864 1.05578H838.64L822.896 17.7598H778.352C772.976 17.7598 770.672 19.1998 770.672 23.0398C770.672 25.6318 772.688 26.6878 776.816 26.6878Z" fill="#0C2B2C"/>
</svg>
