<svg width="773" height="45" viewBox="0 0 773 45" fill="none" xmlns="http://www.w3.org/2000/svg">
<path d="M35.6484 1.90735e-05C54.1444 1.90735e-05 63.4884 5.69602 63.4884 18.112C63.4884 35.712 51.8404 44.224 27.8404 44.224C9.34438 44.224 0.000375271 38.464 0.000375271 26.048C0.000375271 8.44802 11.6484 1.90735e-05 35.6484 1.90735e-05ZM29.7604 33.088C46.9764 33.088 50.1764 30.4 50.1764 19.456C50.1764 12.544 45.3124 11.136 33.6644 11.136C16.4484 11.136 13.3124 13.76 13.3124 24.768C13.3124 31.68 18.2404 33.088 29.7604 33.088ZM129.122 0.704018L124.834 24.832C122.53 37.76 112.61 44.224 94.7539 44.224C76.3859 44.224 68.2579 39.104 68.2579 28.864C68.2579 27.584 68.3859 26.24 68.6419 24.832L72.9299 0.704018H86.1779L81.8259 24.832C81.6979 25.728 81.6339 26.496 81.6339 27.2C81.6339 31.68 84.9619 33.216 96.6739 33.216C106.914 33.216 110.434 30.848 111.522 24.832L115.81 0.704018H129.122ZM183.351 35.2L189.815 43.52H172.087L164.535 32.192H144.183L142.199 43.52H128.951L132.791 21.632H170.039C174.455 21.632 178.295 19.52 178.295 16.064C178.295 13.248 175.863 11.84 171.767 11.84H134.519L145.143 0.704018H172.663C181.623 0.704018 192.247 3.45602 192.247 13.696C192.247 21.44 186.679 27.968 178.423 29.568C179.639 30.656 180.983 32.192 183.351 35.2ZM245.447 32.512H275.463L265.031 43.52H243.527C230.151 43.52 221.255 35.456 221.255 24.64C221.255 10.56 234.695 0.704018 251.079 0.704018H281.095L270.599 11.84H249.095C241.223 11.84 234.567 16.896 234.567 23.68C234.567 28.992 238.983 32.512 245.447 32.512ZM315.773 1.90735e-05C334.269 1.90735e-05 343.613 5.69602 343.613 18.112C343.613 35.712 331.965 44.224 307.965 44.224C289.469 44.224 280.125 38.464 280.125 26.048C280.125 8.44802 291.773 1.90735e-05 315.773 1.90735e-05ZM309.885 33.088C327.101 33.088 330.301 30.4 330.301 19.456C330.301 12.544 325.437 11.136 313.789 11.136C296.573 11.136 293.437 13.76 293.437 24.768C293.437 31.68 298.365 33.088 309.885 33.088ZM373.836 4.54402L378.508 16.64C380.748 22.464 382.22 26.56 383.18 29.44C385.1 26.432 387.34 23.296 392.268 16.704L401.292 4.54402C403.276 1.85602 405.836 1.90735e-05 409.356 1.90735e-05C412.684 1.90735e-05 415.244 1.92002 415.692 5.88802L419.916 43.52H406.732L405.26 28.608C404.812 23.744 404.556 20.288 404.492 16.832C402.572 19.84 400.332 23.104 396.364 28.672L388.748 39.424C385.74 43.648 383.5 44.224 380.3 44.224C377.1 44.224 375.052 43.648 373.516 39.424L369.676 28.608C367.564 22.72 366.604 19.712 365.772 16.832C364.492 19.968 362.764 24.064 360.78 28.608L354.124 43.52H341.132L358.796 5.88802C360.716 1.92002 364.044 1.90735e-05 367.372 1.90735e-05C370.764 1.90735e-05 372.748 1.72802 373.836 4.54402ZM454.398 4.54402L459.07 16.64C461.31 22.464 462.782 26.56 463.742 29.44C465.662 26.432 467.902 23.296 472.83 16.704L481.854 4.54402C483.838 1.85602 486.398 1.90735e-05 489.918 1.90735e-05C493.246 1.90735e-05 495.806 1.92002 496.254 5.88802L500.478 43.52H487.294L485.822 28.608C485.374 23.744 485.118 20.288 485.054 16.832C483.134 19.84 480.894 23.104 476.926 28.672L469.31 39.424C466.302 43.648 464.062 44.224 460.862 44.224C457.662 44.224 455.614 43.648 454.078 39.424L450.238 28.608C448.126 22.72 447.166 19.712 446.334 16.832C445.054 19.968 443.326 24.064 441.342 28.608L434.686 43.52H421.694L439.358 5.88802C441.278 1.92002 444.606 1.90735e-05 447.934 1.90735e-05C451.326 1.90735e-05 453.31 1.72802 454.398 4.54402ZM566.122 0.704018L561.834 24.832C559.53 37.76 549.61 44.224 531.754 44.224C513.386 44.224 505.258 39.104 505.258 28.864C505.258 27.584 505.386 26.24 505.642 24.832L509.93 0.704018H523.178L518.826 24.832C518.698 25.728 518.634 26.496 518.634 27.2C518.634 31.68 521.962 33.216 533.674 33.216C543.914 33.216 547.434 30.848 548.522 24.832L552.81 0.704018H566.122ZM609.343 44.224C607.551 44.224 606.207 43.84 604.415 41.92L582.335 18.368L577.919 43.52H565.887L572.095 8.00002C573.055 2.30402 576.831 1.90735e-05 580.799 1.90735e-05C582.399 1.90735e-05 583.999 0.384018 585.727 2.30402L607.807 25.856L612.287 0.704018H624.319L617.983 36.16C616.959 41.856 613.183 44.224 609.343 44.224ZM645.571 0.704018L638.019 43.52H624.771L632.387 0.704018H645.571ZM658.426 0.704018H707.066L696.442 11.84H681.21L675.578 43.52H662.33L667.898 11.84H647.802L658.426 0.704018ZM755.678 0.704018H772.318L741.79 29.376L739.358 43.52H726.046L728.542 29.312L707.486 0.704018H724.51L732.702 12.608C733.79 14.144 736.606 18.048 737.246 19.328C738.398 18.112 740.126 16.256 743.838 12.544L755.678 0.704018Z" fill="#DBE9EE"/>
</svg>
