<svg width="787" height="67" viewBox="0 0 787 67" fill="none" xmlns="http://www.w3.org/2000/svg">
<path d="M53.4716 -0.00021553C81.2156 -0.00021553 95.2316 8.54378 95.2316 27.1678C95.2316 53.5678 77.7596 66.3358 41.7596 66.3358C14.0156 66.3358 -0.000413656 57.6958 -0.000413656 39.0718C-0.000413656 12.6718 17.4716 -0.00021553 53.4716 -0.00021553ZM44.6396 49.6318C70.4636 49.6318 75.2636 45.5998 75.2636 29.1838C75.2636 18.8158 67.9676 16.7038 50.4956 16.7038C24.6716 16.7038 19.9676 20.6398 19.9676 37.1518C19.9676 47.5198 27.3596 49.6318 44.6396 49.6318ZM193.682 1.05578L187.25 37.2478C183.794 56.6398 168.914 66.3358 142.13 66.3358C114.578 66.3358 102.386 58.6558 102.386 43.2958C102.386 41.3758 102.578 39.3598 102.962 37.2478L109.394 1.05578H129.266L122.738 37.2478C122.546 38.5918 122.45 39.7438 122.45 40.7998C122.45 47.5198 127.442 49.8238 145.01 49.8238C160.37 49.8238 165.65 46.2718 167.282 37.2478L173.714 1.05578H193.682ZM275.025 52.7998L284.721 65.2798H258.129L246.801 48.2878H216.273L213.297 65.2798H193.425L199.185 32.4478H255.057C261.681 32.4478 267.441 29.2798 267.441 24.0958C267.441 19.8718 263.793 17.7598 257.649 17.7598H201.777L217.713 1.05578H258.993C272.433 1.05578 288.369 5.18378 288.369 20.5438C288.369 32.1598 280.017 41.9518 267.633 44.3518C269.457 45.9838 271.473 48.2878 275.025 52.7998ZM360.009 26.6878H394.953C408.873 26.6878 416.265 31.6798 416.265 41.2798C416.265 55.1998 407.529 65.2798 384.681 65.2798H324.873L340.521 48.7678H389.193C394.569 48.7678 396.873 47.0398 396.873 43.2958C396.873 40.7038 394.857 39.4558 390.825 39.4558H355.785C341.193 39.4558 334.665 33.3118 334.665 23.9998C334.665 10.9438 343.593 1.05578 366.057 1.05578H421.833L406.089 17.7598H361.545C356.169 17.7598 353.865 19.1998 353.865 23.0398C353.865 25.6318 355.881 26.6878 360.009 26.6878ZM433.576 1.05578H506.536L490.6 17.7598H467.752L459.304 65.2798H439.432L447.784 17.7598H417.64L433.576 1.05578ZM548.472 -0.00021553C576.216 -0.00021553 590.232 8.54378 590.232 27.1678C590.232 53.5678 572.76 66.3358 536.76 66.3358C509.016 66.3358 495 57.6958 495 39.0718C495 12.6718 512.472 -0.00021553 548.472 -0.00021553ZM539.64 49.6318C565.464 49.6318 570.264 45.5998 570.264 29.1838C570.264 18.8158 562.968 16.7038 545.496 16.7038C519.672 16.7038 514.968 20.6398 514.968 37.1518C514.968 47.5198 522.36 49.6318 539.64 49.6318ZM675.338 52.7998L685.034 65.2798H658.442L647.114 48.2878H616.586L613.61 65.2798H593.738L599.498 32.4478H655.37C661.994 32.4478 667.754 29.2798 667.754 24.0958C667.754 19.8718 664.106 17.7598 657.962 17.7598H602.09L618.026 1.05578H659.306C672.746 1.05578 688.682 5.18378 688.682 20.5438C688.682 32.1598 680.33 41.9518 667.946 44.3518C669.77 45.9838 671.786 48.2878 675.338 52.7998ZM761.797 1.05578H786.757L740.965 44.0638L737.317 65.2798H717.349L721.093 43.9678L689.509 1.05578H715.045L727.333 18.9118C728.965 21.2158 733.189 27.0718 734.149 28.9918C735.877 27.1678 738.469 24.3838 744.037 18.8158L761.797 1.05578Z" fill="#0C2B2C"/>
</svg>
