<svg width="727" height="67" viewBox="0 0 727 67" fill="none" xmlns="http://www.w3.org/2000/svg">
<path d="M53.4716 -0.00021553C81.2156 -0.00021553 95.2316 8.54378 95.2316 27.1678C95.2316 53.5678 77.7596 66.3358 41.7596 66.3358C14.0156 66.3358 -0.000413656 57.6958 -0.000413656 39.0718C-0.000413656 12.6718 17.4716 -0.00021553 53.4716 -0.00021553ZM44.6396 49.6318C70.4636 49.6318 75.2636 45.5998 75.2636 29.1838C75.2636 18.8158 67.9676 16.7038 50.4956 16.7038C24.6716 16.7038 19.9676 20.6398 19.9676 37.1518C19.9676 47.5198 27.3596 49.6318 44.6396 49.6318ZM193.682 1.05578L187.25 37.2478C183.794 56.6398 168.914 66.3358 142.13 66.3358C114.578 66.3358 102.386 58.6558 102.386 43.2958C102.386 41.3758 102.578 39.3598 102.962 37.2478L109.394 1.05578H129.266L122.738 37.2478C122.546 38.5918 122.45 39.7438 122.45 40.7998C122.45 47.5198 127.442 49.8238 145.01 49.8238C160.37 49.8238 165.65 46.2718 167.282 37.2478L173.714 1.05578H193.682ZM211.857 1.05578H284.817L268.881 17.7598H246.033L237.585 65.2798H217.713L226.065 17.7598H195.921L211.857 1.05578ZM354.338 52.7998L364.034 65.2798H337.442L326.114 48.2878H295.586L292.61 65.2798H272.738L278.498 32.4478H334.37C340.994 32.4478 346.754 29.2798 346.754 24.0958C346.754 19.8718 343.106 17.7598 336.962 17.7598H281.09L297.026 1.05578H338.306C351.746 1.05578 367.682 5.18378 367.682 20.5438C367.682 32.1598 359.33 41.9518 346.946 44.3518C348.77 45.9838 350.786 48.2878 354.338 52.7998ZM394.028 48.7678H448.748L433.004 65.2798H371.18L382.604 1.05578H456.908L441.068 17.7598H399.5L398.156 25.4398H448.94L435.116 40.0318H395.564L394.028 48.7678ZM551.13 65.2798H476.442L491.418 48.7678H507.45C511.386 48.7678 515.802 48.7678 518.874 48.9598C517.53 46.6558 515.514 42.7198 513.978 39.6478L505.434 22.6558L467.802 65.2798H444.282L495.738 7.19978C499.098 3.45578 503.61 -0.00021553 509.85 -0.00021553C515.802 -0.00021553 519.162 3.16778 521.274 7.19978L551.13 65.2798ZM587.919 48.7678H632.943L617.295 65.2798H585.039C564.975 65.2798 551.631 53.1838 551.631 36.9598C551.631 15.8398 571.791 1.05578 596.367 1.05578H641.391L625.647 17.7598H593.391C581.583 17.7598 571.599 25.3438 571.599 35.5198C571.599 43.4878 578.223 48.7678 587.919 48.7678ZM726.337 1.05578L714.913 65.2798H695.137L699.553 40.5118H661.249L656.929 65.2798H636.961L648.385 1.05578H668.257L664.129 23.8078H702.433L706.465 1.05578H726.337Z" fill="#0C2B2C"/>
</svg>
