<svg width="572" height="67" viewBox="0 0 572 67" fill="none" xmlns="http://www.w3.org/2000/svg">
<path d="M81.5996 52.7998L91.2956 65.2798H64.7036L53.3756 48.2878H22.8476L19.8716 65.2798H-0.000444889L5.75956 32.4478H61.6316C68.2556 32.4478 74.0156 29.2798 74.0156 24.0958C74.0156 19.8718 70.3676 17.7598 64.2236 17.7598H8.35155L24.2876 1.05578H65.5676C79.0076 1.05578 94.9436 5.18378 94.9436 20.5438C94.9436 32.1598 86.5916 41.9518 74.2076 44.3518C76.0316 45.9838 78.0476 48.2878 81.5996 52.7998ZM152.546 -0.00021553C180.29 -0.00021553 194.306 8.54378 194.306 27.1678C194.306 53.5678 176.834 66.3358 140.834 66.3358C113.09 66.3358 99.0738 57.6958 99.0738 39.0718C99.0738 12.6718 116.546 -0.00021553 152.546 -0.00021553ZM143.714 49.6318C169.538 49.6318 174.338 45.5998 174.338 29.1838C174.338 18.8158 167.042 16.7038 149.57 16.7038C123.746 16.7038 119.042 20.6398 119.042 37.1518C119.042 47.5198 126.434 49.6318 143.714 49.6318ZM276.244 32.2558C280.852 33.5998 284.212 37.7278 284.212 43.9678C284.212 54.4318 278.932 65.2798 254.452 65.2798H198.004L204.916 26.2078H261.748C265.012 26.2078 268.084 24.9598 268.084 21.1198C268.084 18.6238 265.684 17.7598 263.188 17.7598H206.356L222.868 1.05578H265.396C279.22 1.05578 287.668 6.23978 287.668 16.1278C287.668 25.3438 281.812 30.4318 276.244 32.2558ZM258.964 39.9358H222.388L220.852 48.7678H257.428C262.324 48.7678 264.532 46.8478 264.532 43.5838C264.532 41.1838 262.804 39.9358 258.964 39.9358ZM346.983 -0.00021553C374.727 -0.00021553 388.743 8.54378 388.743 27.1678C388.743 53.5678 371.271 66.3358 335.271 66.3358C307.527 66.3358 293.511 57.6958 293.511 39.0718C293.511 12.6718 310.983 -0.00021553 346.983 -0.00021553ZM338.151 49.6318C363.975 49.6318 368.775 45.5998 368.775 29.1838C368.775 18.8158 361.479 16.7038 344.007 16.7038C318.183 16.7038 313.479 20.6398 313.479 37.1518C313.479 47.5198 320.871 49.6318 338.151 49.6318ZM410.682 1.05578H483.642L467.706 17.7598H444.858L436.41 65.2798H416.538L424.89 17.7598H394.746L410.682 1.05578ZM509.615 26.6878H544.559C558.479 26.6878 565.871 31.6798 565.871 41.2798C565.871 55.1998 557.135 65.2798 534.287 65.2798H474.479L490.127 48.7678H538.799C544.175 48.7678 546.479 47.0398 546.479 43.2958C546.479 40.7038 544.463 39.4558 540.431 39.4558H505.391C490.799 39.4558 484.271 33.3118 484.271 23.9998C484.271 10.9438 493.199 1.05578 515.663 1.05578H571.439L555.695 17.7598H511.151C505.775 17.7598 503.471 19.1998 503.471 23.0398C503.471 25.6318 505.487 26.6878 509.615 26.6878Z" fill="#DBE9EE"/>
</svg>
